<?xml version="1.0" ?><svg id="Layer_1" style="enable-background:new 0 0 174.3 150.5;" version="1.1" viewBox="0 0 174.3 150.5" xml:space="preserve" xmlns="http://www.w3.org/2000/svg" xmlns:xlink="http://www.w3.org/1999/xlink"><style type="text/css">
	.st0{fill:#1E532B;}
	.st1{fill:#3AAA54;}
</style><path d="M171.4,128.3h-11.5c-0.3,0-0.4,0.2-0.4,0.5v2.4c0,0.7,0.1,1.3,0.4,1.9c0.2,0.6,0.6,1.1,1,1.5c0.4,0.4,0.9,0.8,1.5,1  c0.6,0.3,1.2,0.4,1.9,0.4c1.1,0,2.1-0.4,2.9-1.2c0.5-0.5,0.8-0.8,1-1.1c0.2-0.3,0.4-0.4,0.6-0.4c0.1,0,0.2,0,0.2,0l1.8,1  c0.2,0.1,0.3,0.2,0.3,0.4c0,0.4-0.2,0.8-0.5,1.2c-0.3,0.5-0.8,0.9-1.4,1.3c-0.6,0.4-1.3,0.7-2.2,1c-0.8,0.3-1.8,0.4-2.8,0.4  c-2.4,0-4.2-0.7-5.6-2c-1.4-1.3-2.1-3.1-2.1-5.4v-6.1c0-0.8,0.2-1.7,0.5-2.6c0.4-0.9,0.9-1.7,1.5-2.4c1.5-1.6,3.3-2.4,5.5-2.4  c1.1,0,2.1,0.2,3,0.6c0.9,0.4,1.8,1,2.5,1.6s1.3,1.5,1.6,2.4c0.4,0.9,0.6,1.8,0.6,2.8v2.8C171.8,128.1,171.7,128.3,171.4,128.3z   M168.9,125.1c0-0.6-0.1-1.2-0.4-1.8c-0.3-0.6-0.6-1.1-1-1.5c-0.4-0.4-0.9-0.8-1.5-1c-0.6-0.3-1.2-0.4-1.9-0.4  c-0.7,0-1.3,0.1-1.9,0.4c-0.6,0.3-1.1,0.6-1.5,1c-0.4,0.4-0.7,0.9-1,1.5c-0.2,0.6-0.4,1.2-0.4,1.9v0.6c0,0.3,0.1,0.5,0.4,0.5h8.5  c0.3,0,0.4-0.1,0.4-0.5L168.9,125.1L168.9,125.1z M152.9,122.9c-0.1,0-0.1,0-0.2,0c-0.1,0-0.2-0.1-0.4-0.2c-0.3-0.3-0.6-0.6-0.9-0.9  c-0.3-0.3-0.6-0.6-0.9-0.8c-0.3-0.2-0.7-0.4-1-0.6c-0.4-0.1-0.8-0.2-1.3-0.2c-0.7,0-1.3,0.1-1.9,0.4c-0.6,0.3-1.1,0.6-1.5,1  s-0.7,0.9-1,1.5c-0.2,0.6-0.4,1.2-0.4,1.9v6.1c0,0.7,0.1,1.3,0.4,1.9c0.2,0.6,0.6,1.1,1,1.5c0.4,0.4,0.9,0.8,1.5,1  c0.6,0.3,1.2,0.4,1.8,0.4c1.1,0,2.1-0.4,2.9-1.2c0.5-0.5,0.8-0.8,1-1.1c0.2-0.3,0.4-0.4,0.6-0.4c0.1,0,0.2,0,0.2,0l1.8,1  c0.2,0.1,0.3,0.2,0.3,0.4c0,0.4-0.2,0.8-0.5,1.2c-0.3,0.5-0.8,0.9-1.4,1.3c-0.6,0.4-1.3,0.7-2.2,1c-0.8,0.3-1.8,0.4-2.8,0.4  c-2.3,0-4.2-0.7-5.6-2c-1.4-1.3-2-3.1-2-5.4v-6.1c0-2.3,0.7-4.1,2-5.4c1.4-1.3,3.2-2,5.6-2c1,0,2,0.1,2.8,0.4c0.8,0.3,1.6,0.6,2.2,1  c0.6,0.4,1.1,0.8,1.4,1.3c0.3,0.5,0.5,0.9,0.5,1.2c0,0.2-0.1,0.3-0.3,0.4L152.9,122.9z M140.1,121.4c-0.2,0-0.4,0-0.7-0.1  c-0.3,0-0.6-0.1-1-0.1c-0.7,0-1.3,0.1-1.9,0.4c-0.6,0.2-1.1,0.6-1.5,1s-0.7,0.9-1,1.5c-0.2,0.6-0.4,1.2-0.4,1.9v11.7  c0,0.3-0.1,0.5-0.4,0.5h-2.1c-0.3,0-0.4-0.1-0.4-0.5v-19.1c0-0.3,0.1-0.5,0.4-0.5h1.6c0.3,0,0.4,0.2,0.4,0.5v2.3  c0,0.3,0.1,0.5,0.3,0.5s0.6-0.2,1-0.7c0.4-0.5,1-1.1,1.8-1.7c0.2-0.2,0.5-0.4,0.9-0.5c0.4-0.1,0.8-0.2,1.1-0.2h1.6  c0.3,0,0.4,0.2,0.4,0.5v2.3C140.5,121.2,140.4,121.4,140.1,121.4z M127,138.2h-1.6c-0.3,0-0.4-0.1-0.4-0.5v-1.9  c0-0.3-0.1-0.5-0.4-0.5c-0.2,0-0.4,0.2-0.7,0.5c-0.2,0.3-0.6,0.7-1,1.1c-0.9,0.9-2.2,1.4-3.6,1.4c-1,0-1.9-0.2-2.8-0.5  c-0.9-0.4-1.6-0.9-2.3-1.5c-0.6-0.6-1.1-1.4-1.5-2.4c-0.4-0.9-0.6-1.9-0.6-3v-12.1c0-0.3,0.1-0.5,0.4-0.5h2.1c0.3,0,0.4,0.2,0.4,0.5  v12.1c0,0.7,0.1,1.3,0.4,1.9c0.2,0.6,0.6,1.1,1,1.5c0.4,0.4,0.9,0.8,1.5,1s1.2,0.4,1.8,0.4c0.7,0,1.3-0.1,1.9-0.4  c0.6-0.3,1.1-0.6,1.5-1s0.8-1,1-1.5c0.2-0.6,0.4-1.2,0.4-1.9v-12.1c0-0.3,0.1-0.5,0.4-0.5h2.1c0.3,0,0.4,0.2,0.4,0.5v19.1  C127.4,138,127.3,138.2,127,138.2z M102.1,138.6c-2.3,0-4.2-0.7-5.6-2c-1.4-1.3-2-3.1-2-5.4v-6.1c0-2.3,0.7-4.1,2-5.4  c1.4-1.3,3.2-2,5.6-2c1.2,0,2.2,0.2,3.2,0.5s1.7,0.9,2.4,1.5c0.7,0.6,1.2,1.4,1.6,2.3c0.4,0.9,0.5,1.9,0.5,3v6.1  c0,2.2-0.7,4-2.1,5.4C106.3,137.9,104.4,138.6,102.1,138.6z M106.8,125.1c0-0.6-0.1-1.2-0.4-1.8c-0.3-0.6-0.6-1.1-1-1.5  c-0.4-0.4-0.9-0.8-1.5-1c-0.6-0.3-1.2-0.4-1.9-0.4c-0.7,0-1.3,0.1-1.9,0.4c-0.6,0.3-1.1,0.6-1.5,1c-0.4,0.4-0.7,0.9-1,1.5  c-0.2,0.6-0.4,1.2-0.4,1.9v6.1c0,0.7,0.1,1.3,0.4,1.9c0.2,0.6,0.6,1.1,1,1.5c0.4,0.4,0.9,0.8,1.5,1c0.6,0.3,1.2,0.4,1.9,0.4  c0.6,0,1.3-0.1,1.9-0.4c0.6-0.3,1.1-0.6,1.5-1c0.4-0.4,0.7-0.9,1-1.5c0.2-0.6,0.4-1.2,0.4-1.9V125.1z M84.8,126.5  c1.3,0.3,2.4,0.5,3.4,0.8c1,0.3,1.8,0.6,2.5,1c0.7,0.4,1.2,0.9,1.5,1.5c0.4,0.6,0.5,1.4,0.5,2.3c0,1.9-0.6,3.5-1.9,4.7  c-1.3,1.2-3,1.8-5.1,1.8h-1.4c-1,0-2-0.1-2.8-0.4c-0.8-0.3-1.5-0.6-2.1-1c-0.6-0.4-1-0.8-1.4-1.3c-0.3-0.5-0.5-0.9-0.5-1.2  c0-0.1,0.1-0.2,0.3-0.3l1.7-0.9c0.1,0,0.1,0,0.2,0s0.2,0.1,0.4,0.2c0.3,0.3,0.6,0.6,0.8,1s0.6,0.6,0.9,0.8c0.3,0.2,0.7,0.4,1.1,0.6  c0.4,0.1,0.9,0.2,1.4,0.2h1.4c1.2,0,2.2-0.3,2.9-1c0.7-0.6,1.1-1.4,1.1-2.4c0-1.6-1.4-2.7-4.3-3.3c-1.3-0.3-2.4-0.5-3.4-0.8  c-1-0.2-1.8-0.6-2.5-1c-0.7-0.4-1.2-0.9-1.5-1.5c-0.3-0.6-0.5-1.4-0.5-2.4c0-1.9,0.6-3.4,1.8-4.6c1.2-1.2,2.9-1.7,4.9-1.7h1.4  c1,0,1.9,0.1,2.7,0.4c0.8,0.3,1.5,0.6,2.1,1c0.6,0.4,1.1,0.8,1.4,1.3c0.3,0.5,0.5,0.8,0.5,1.2c0,0.1-0.1,0.2-0.3,0.3l-1.7,0.9  c-0.1,0-0.1,0-0.2,0c-0.1,0-0.2-0.1-0.4-0.2c-0.6-0.7-1.2-1.3-1.8-1.7c-0.6-0.5-1.4-0.7-2.4-0.7h-1.4c-1.3,0-2.3,0.3-2.9,0.8  c-0.7,0.5-1,1.3-1,2.2c0,0.9,0.4,1.7,1.1,2.2C82.2,125.7,83.3,126.1,84.8,126.5z M69.3,138.9h-3.1c-0.3,0-0.4-0.2-0.4-0.5v-12.2  c0-0.5-0.1-1.1-0.3-1.6c-0.2-0.5-0.5-0.9-0.8-1.3s-0.8-0.7-1.3-0.9c-0.5-0.2-1-0.3-1.6-0.3c-1.1,0-2.1,0.4-2.8,1.2  c-0.8,0.8-1.1,1.8-1.1,2.9v12.2c0,0.3-0.1,0.5-0.4,0.5h-3.1c-0.3,0-0.4-0.2-0.4-0.5v-19.5c0-0.3,0.1-0.5,0.4-0.5H57  c0.3,0,0.4,0.2,0.4,0.5v0.5c0,0.3,0.1,0.5,0.3,0.5c0.1,0,0.3-0.1,0.6-0.2c0.2-0.1,0.5-0.3,0.9-0.5s0.8-0.4,1.3-0.5  c0.5-0.1,1-0.2,1.7-0.2c1.1,0,2.1,0.2,3.1,0.6c0.9,0.4,1.7,0.9,2.4,1.6c0.7,0.7,1.2,1.5,1.6,2.4c0.4,0.9,0.6,2,0.6,3.1v12.2  C69.7,138.7,69.5,138.9,69.3,138.9z M51.5,129.4h-11c-0.3,0-0.4,0.2-0.4,0.5v1.8c0,0.5,0.1,1.1,0.3,1.6c0.2,0.5,0.5,0.9,0.8,1.3  c0.4,0.4,0.8,0.7,1.3,0.9c0.5,0.2,1,0.3,1.6,0.3c0.5,0,1-0.1,1.4-0.3c0.4-0.2,0.8-0.4,1-0.7c0.5-0.6,0.9-1.1,1.1-1.4  c0.2-0.3,0.4-0.5,0.5-0.5c0.1,0,0.1,0,0.3,0.1l2.8,1.4c0.2,0.1,0.3,0.2,0.3,0.3c0,0.2-0.1,0.5-0.4,1c-0.3,0.5-0.8,1.1-1.4,1.7  c-1.3,1.3-3.1,1.9-5.5,1.9c-1.2,0-2.3-0.2-3.3-0.5c-1-0.4-1.8-0.9-2.5-1.6c-0.7-0.7-1.2-1.5-1.6-2.4c-0.4-1-0.6-2-0.6-3.1v-5.9  c0-1,0.2-2,0.6-2.9c0.4-0.9,1-1.8,1.7-2.4c0.7-0.7,1.6-1.3,2.5-1.7c1-0.4,2-0.6,3.1-0.6c1.1,0,2.1,0.2,3.1,0.6c1,0.4,1.8,1,2.5,1.7  c0.7,0.7,1.3,1.5,1.7,2.4s0.6,1.9,0.6,2.9v3.2C51.9,129.2,51.8,129.4,51.5,129.4z M47.6,124c-0.2-0.5-0.5-0.9-0.9-1.2  c-0.4-0.3-0.8-0.6-1.3-0.8c-0.5-0.2-1-0.3-1.5-0.3c-0.5,0-1,0.1-1.5,0.3c-0.5,0.2-0.9,0.5-1.3,0.9s-0.6,0.8-0.9,1.2  c-0.2,0.5-0.3,0.9-0.3,1.4c0,0.2,0,0.4,0.1,0.5s0.2,0.2,0.4,0.2h7c0.2,0,0.3-0.1,0.4-0.2c0-0.1,0.1-0.3,0.1-0.6  C47.9,124.9,47.8,124.5,47.6,124z M32.7,136.7c-0.7,0.7-1.4,1.2-2.3,1.6c-0.9,0.4-1.8,0.6-2.9,0.6c-0.6,0-1.2-0.1-1.7-0.2  c-0.5-0.2-0.9-0.3-1.3-0.5c-0.4-0.2-0.6-0.4-0.9-0.5c-0.2-0.1-0.4-0.2-0.5-0.2c-0.2,0-0.4,0.2-0.4,0.5v10.7c0,0.3-0.1,0.5-0.4,0.5  h-3.1c-0.3,0-0.4-0.2-0.4-0.5v-29.7c0-0.3,0.1-0.5,0.4-0.5H22c0.3,0,0.4,0.2,0.4,0.5v0.5c0,0.3,0.1,0.5,0.3,0.5  c0.1,0,0.3-0.1,0.6-0.2c0.2-0.1,0.5-0.3,0.9-0.5c0.4-0.2,0.8-0.4,1.3-0.5c0.5-0.1,1-0.2,1.7-0.2c1.1,0,2.1,0.2,3.1,0.6  c0.9,0.4,1.7,0.9,2.4,1.6c0.7,0.7,1.2,1.5,1.6,2.4c0.4,0.9,0.6,2,0.6,3.1v5c0,1.1-0.2,2.1-0.5,3.1C33.9,135.2,33.3,136,32.7,136.7z   M30.8,126.2c0-0.5-0.1-1.1-0.3-1.6c-0.2-0.5-0.5-0.9-0.8-1.3s-0.8-0.7-1.3-0.9c-0.5-0.2-1-0.3-1.6-0.3c-1.1,0-2.1,0.4-2.8,1.2  c-0.8,0.8-1.1,1.8-1.1,2.9v5c0,1.1,0.4,2.1,1.1,2.9c0.8,0.8,1.7,1.2,2.8,1.2c0.6,0,1.1-0.1,1.6-0.3c0.5-0.2,0.9-0.5,1.3-0.9  c0.4-0.4,0.6-0.8,0.8-1.3c0.2-0.5,0.3-1,0.3-1.6V126.2z M14.8,137.2c-0.7,0.7-1.5,1.2-2.5,1.6c-1,0.4-2.1,0.5-3.3,0.5  s-2.3-0.2-3.3-0.5c-1-0.4-1.8-0.9-2.5-1.6c-0.7-0.7-1.2-1.5-1.6-2.4s-0.6-2-0.6-3.1v-5.9c0-1.1,0.2-2.2,0.6-3.1  c0.4-1,0.9-1.8,1.6-2.4c0.7-0.7,1.5-1.2,2.5-1.6c1-0.4,2-0.5,3.3-0.5s2.3,0.2,3.3,0.6c1,0.4,1.8,0.9,2.5,1.6  c0.7,0.7,1.2,1.5,1.6,2.4c0.4,0.9,0.6,2,0.6,3.1v5.9c0,1.1-0.2,2.2-0.6,3.1C16,135.7,15.5,136.5,14.8,137.2z M13,125.7  c0-1.1-0.4-2.1-1.1-2.9c-0.8-0.8-1.7-1.2-2.8-1.2s-2,0.4-2.8,1.2c-0.8,0.8-1.1,1.8-1.1,2.9v5.9c0,0.5,0.1,1.1,0.3,1.6  c0.2,0.5,0.5,0.9,0.8,1.3c0.4,0.4,0.8,0.7,1.3,0.9c0.5,0.2,1,0.3,1.6,0.3c1.1,0,2-0.4,2.8-1.2c0.8-0.8,1.1-1.8,1.1-2.9L13,125.7  L13,125.7z"/><path class="st0" d="M76.5,3c12-2,24.6,0.1,35.3,6.1c10.6,5.9,19.2,15.4,23.8,26.7c4.7,11.3,5.4,24.1,1.9,35.8  c-4.6,16.2-17.3,29.8-33.1,35.5c-1.3,0.6-2.3-0.7-2.6-1.8c-3.9-10.4-7.9-20.9-11.7-31.3c-0.9-1.9,1.4-2.6,2.7-3.2  c6.9-3.3,10.5-11.8,8.1-19c-1.7-5.9-7.1-10.5-13.2-11.3c-7-1.1-14.3,3-17.1,9.4c-2.7,5.8-1.4,13.1,3.1,17.7c1.8,2,4.2,3.1,6.5,4.3  c1,0.6,0.7,1.9,0.3,2.8c-3.9,10.3-7.7,20.7-11.7,31c-0.3,0.9-1.2,1.9-2.2,1.5c-19.1-6.7-33.3-25-35.1-45.1  c-1.4-13.2,2.3-26.9,10.2-37.6C49.9,13.1,62.7,5.2,76.5,3L76.5,3z"/><path class="st1" d="M73.9,7.3c10-2.4,20.7-1.6,30.2,2.2c10.9,4.3,20.2,12.6,25.8,22.9c5,9.2,7,19.9,5.7,30.3  c-1.3,10.6-6.1,20.7-13.5,28.5c-4.8,5.1-10.8,9.1-17.2,11.9c-3.6-9.6-7.3-19.1-10.7-28.8c5.8-3,10.1-8.7,10.9-15.2  c1.4-8.8-4.2-18.1-12.6-21.1c-7.7-3.1-17.2-0.6-22.4,5.9c-5,5.9-6,14.9-2.3,21.7c1.9,3.8,5.2,6.7,8.9,8.8  C73.2,84,69.6,93.5,66,103.1C56.1,99,47.6,91.6,42.1,82.4c-4.7-7.7-7.2-16.8-7.2-25.8c-0.1-11.2,3.7-22.4,10.7-31.2  C52.6,16.4,62.7,9.9,73.9,7.3L73.9,7.3z"/><g><path class="st0" d="M154,102.1c-0.8-2.2-1.3-4.5-1.6-6.7c-1.2,2.5-2.6,4.9-3.9,7.3c-1.3-2.4-2.7-4.8-3.9-7.3   c-0.4,2.3-1,4.6-1.5,6.9c-0.6,0-1.3,0-1.9,0c0.9-4,2.1-7.9,2.9-11.9c1.5,2.8,3,5.6,4.4,8.4c1.6-2.7,2.9-5.6,4.4-8.4   c0.9,4,2.1,7.9,3,11.9C155.4,102.3,154.5,102.1,154,102.1z"/><path class="st0" d="M136.7,92.4c0,3.3,0,6.5,0,9.8c-0.7,0-1.4,0-2,0c0-3.3,0-6.5,0-9.8c-1.1,0-2.2,0-3.4,0c0-0.5,0-1,0-1.5   c2.9,0,5.8,0,8.8,0c0,0.5,0,1,0,1.6C138.9,92.5,137.8,92.4,136.7,92.4z"/></g></svg>