<svg id="Calque_1" data-name="Calque 1" xmlns="http://www.w3.org/2000/svg" xmlns:xlink="http://www.w3.org/1999/xlink" viewBox="0 0 4000 4000"><defs><style>.cls-1{fill:url(#Dégradé_sans_nom_4);}.cls-2{fill:url(#Nouvelle_nuance_de_dégradé_1);}.cls-3{fill:url(#Nouvelle_nuance_de_dégradé_1-2);}</style><linearGradient id="Dégradé_sans_nom_4" x1="2271.27" y1="1531.56" x2="1048.38" y2="2713.95" gradientTransform="matrix(0.94, -0.35, 0.35, 0.94, -556.95, 828.8)" gradientUnits="userSpaceOnUse"><stop offset="0" stop-color="#ff4c00"/><stop offset="0.68" stop-color="#ff8300"/><stop offset="1" stop-color="#ff9d00"/></linearGradient><linearGradient id="Nouvelle_nuance_de_dégradé_1" x1="2240.24" y1="1499.47" x2="1017.35" y2="2681.86" gradientTransform="matrix(0.94, -0.35, 0.35, 0.94, -556.95, 828.8)" gradientUnits="userSpaceOnUse"><stop offset="0" stop-color="#ff4c00"/><stop offset="1" stop-color="#ff9d00"/></linearGradient><linearGradient id="Nouvelle_nuance_de_dégradé_1-2" x1="2454.3" y1="1720.86" x2="1231.42" y2="2903.25" xlink:href="#Nouvelle_nuance_de_dégradé_1"/></defs><title>noswings color</title><path class="cls-1" d="M2757,1934.59a777.24,777.24,0,0,1,30.11,94.88s0,0,0,0c-378.81-126-807-292.69-807-292.69s-113.37-82.39-233.89-237.71c-122.11-157.24-251.51-389.34-278-686.41a0,0,0,0,1,.08,0c62.6,73.46,150.47,161,271.22,261.47,156.56,130.31,368.39,282.49,652.23,454.33q40.41,24.52,82.81,49.53h0A768.81,768.81,0,0,1,2757,1934.59Z"/><path class="cls-2" d="M2460.42,2456.65a778.23,778.23,0,0,1,30.13,94.94c-378.82-126-804.88-252.73-804.88-252.73s-115.57-122.37-236.09-277.69c-122.13-157.27-251.55-389.41-278-686.56,62.61,73.48,150.5,161,271.31,261.58,156.56,130.31,368.39,282.49,652.24,454.33q40.41,24.53,82.81,49.53A768.63,768.63,0,0,1,2460.42,2456.65Z"/><path class="cls-3" d="M2474.56,1578a772.91,772.91,0,0,0-82.82-49.53c-189.7-98-430.92-112.41-645.58-29.35,26.13,36.89,61.06,74.83,87.41,105.57,103.07,120.23,182,207.89,250.47,275.7-237-31.41-429.35-127.11-574.59-230.17-63.81,59.66-116.63,154-156.56,230.14,65.61,101.46,127.47,164.32,184.94,239.75,95.26,125,178.92,216.62,249.63,282.34-210-27.83-384.89-106.13-523.08-195.3-.21,21.28.4,42.64,2,64.05a777.09,777.09,0,0,0,165.82,424.49q10.21,12.87,20.95,25.21,21.63,25,45.27,47.89a767.48,767.48,0,0,0,91.85,76.31,778.1,778.1,0,0,0,145.92,81.24c.28.1.56.19.86.32q26.76,11.34,54.26,20.54a769.37,769.37,0,0,0,526-12.46c2.55-1,5.1-2,7.64-3a778,778,0,0,0,133.4-69.1c273.61-177.54,408.45-512.61,328.86-833.08a778.23,778.23,0,0,0-30.13-94.94A768.76,768.76,0,0,0,2474.56,1578Z"/></svg>